<svg width="267" height="92" viewBox="0 0 267 92" fill="none" xmlns="http://www.w3.org/2000/svg">
  <path d="M27.754 41.757H45.017V24.006H56.973V70H45.017V51.029H27.754V70H15.798V24.006H27.754V41.757ZM76.6155 38.707V70H65.5745V38.707H76.6155ZM64.8425 26.69C64.8425 25.836 65.0051 25.043 65.3305 24.311C65.6558 23.5383 66.1031 22.8673 66.6725 22.298C67.2418 21.7287 67.8925 21.2813 68.6245 20.956C69.3971 20.6307 70.2105 20.468 71.0645 20.468C71.9185 20.468 72.7115 20.6307 73.4435 20.956C74.2161 21.2813 74.8871 21.7287 75.4565 22.298C76.0258 22.8673 76.4731 23.5383 76.7985 24.311C77.1238 25.043 77.2865 25.836 77.2865 26.69C77.2865 27.544 77.1238 28.3573 76.7985 29.13C76.4731 29.862 76.0258 30.5127 75.4565 31.082C74.8871 31.6513 74.2161 32.0987 73.4435 32.424C72.7115 32.7493 71.9185 32.912 71.0645 32.912C70.2105 32.912 69.3971 32.7493 68.6245 32.424C67.8925 32.0987 67.2418 31.6513 66.6725 31.082C66.1031 30.5127 65.6558 29.862 65.3305 29.13C65.0051 28.3573 64.8425 27.544 64.8425 26.69ZM109.109 54.445C109.109 53.469 108.926 52.554 108.56 51.7C108.235 50.8053 107.747 50.0327 107.096 49.382C106.446 48.7313 105.673 48.223 104.778 47.857C103.924 47.4503 102.989 47.247 101.972 47.247C100.996 47.247 100.081 47.43 99.2274 47.796C98.3734 48.162 97.6211 48.6703 96.9704 49.321C96.3604 49.9717 95.8521 50.7443 95.4454 51.639C95.0794 52.493 94.8964 53.408 94.8964 54.384C94.8964 55.36 95.0794 56.275 95.4454 57.129C95.8114 57.983 96.3198 58.7353 96.9704 59.386C97.6211 59.996 98.3734 60.5043 99.2274 60.911C100.122 61.277 101.057 61.46 102.033 61.46C103.009 61.46 103.924 61.277 104.778 60.911C105.632 60.545 106.364 60.0367 106.974 59.386C107.625 58.7353 108.133 57.983 108.499 57.129C108.906 56.275 109.109 55.3803 109.109 54.445ZM95.2014 85.616H84.1604V38.707H95.2014V42.184C97.5601 39.2153 100.773 37.731 104.839 37.731C107.076 37.731 109.15 38.1783 111.061 39.073C113.013 39.927 114.701 41.1063 116.124 42.611C117.548 44.1157 118.646 45.8847 119.418 47.918C120.232 49.9513 120.638 52.127 120.638 54.445C120.638 56.763 120.232 58.9183 119.418 60.911C118.646 62.9037 117.548 64.6523 116.124 66.157C114.742 67.6617 113.095 68.841 111.183 69.695C109.272 70.549 107.198 70.976 104.961 70.976C101.057 70.976 97.8041 69.634 95.2014 66.95V85.616ZM147.672 46.759C145.639 45.7017 143.646 45.173 141.694 45.173C140.677 45.173 139.844 45.3763 139.193 45.783C138.583 46.1897 138.278 46.7387 138.278 47.43C138.278 47.796 138.319 48.101 138.4 48.345C138.522 48.5483 138.746 48.7517 139.071 48.955C139.437 49.1583 139.945 49.3413 140.596 49.504C141.287 49.6667 142.182 49.87 143.28 50.114C146.33 50.724 148.607 51.822 150.112 53.408C151.617 54.9533 152.369 56.946 152.369 59.386C152.369 61.216 152.003 62.863 151.271 64.327C150.539 65.791 149.522 67.0313 148.221 68.048C146.92 69.024 145.354 69.7763 143.524 70.305C141.694 70.8743 139.681 71.159 137.485 71.159C133.256 71.159 129.087 69.9593 124.98 67.56L129.006 59.752C132.097 61.8667 135.025 62.924 137.79 62.924C138.807 62.924 139.64 62.7003 140.291 62.253C140.942 61.8057 141.267 61.2363 141.267 60.545C141.267 60.1383 141.206 59.813 141.084 59.569C141.003 59.2843 140.799 59.0403 140.474 58.837C140.149 58.593 139.661 58.3897 139.01 58.227C138.4 58.0237 137.587 57.8203 136.57 57.617C133.154 56.9257 130.755 55.909 129.372 54.567C128.03 53.1843 127.359 51.2933 127.359 48.894C127.359 47.1453 127.684 45.5797 128.335 44.197C128.986 42.7737 129.921 41.574 131.141 40.598C132.361 39.622 133.825 38.8697 135.533 38.341C137.282 37.8123 139.213 37.548 141.328 37.548C144.785 37.548 148.14 38.219 151.393 39.561L147.672 46.759ZM171.124 47.918V70H160.083V47.918H156.423V38.707H160.083V29.313H171.124V38.707H177.407V47.918H171.124ZM193.433 38.707V70H182.392V38.707H193.433ZM181.66 26.69C181.66 25.836 181.823 25.043 182.148 24.311C182.473 23.5383 182.921 22.8673 183.49 22.298C184.059 21.7287 184.71 21.2813 185.442 20.956C186.215 20.6307 187.028 20.468 187.882 20.468C188.736 20.468 189.529 20.6307 190.261 20.956C191.034 21.2813 191.705 21.7287 192.274 22.298C192.843 22.8673 193.291 23.5383 193.616 24.311C193.941 25.043 194.104 25.836 194.104 26.69C194.104 27.544 193.941 28.3573 193.616 29.13C193.291 29.862 192.843 30.5127 192.274 31.082C191.705 31.6513 191.034 32.0987 190.261 32.424C189.529 32.7493 188.736 32.912 187.882 32.912C187.028 32.912 186.215 32.7493 185.442 32.424C184.71 32.0987 184.059 31.6513 183.49 31.082C182.921 30.5127 182.473 29.862 182.148 29.13C181.823 28.3573 181.66 27.544 181.66 26.69ZM212.934 47.918V70H201.893V47.918H197.928V38.707H201.893V34.01C201.893 31.4073 202.137 29.3333 202.625 27.788C203.031 26.4867 203.682 25.287 204.577 24.189C205.471 23.0503 206.508 22.0743 207.688 21.261C208.908 20.4477 210.209 19.8173 211.592 19.37C212.974 18.9227 214.337 18.699 215.679 18.699C216.614 18.699 217.468 18.8007 218.241 19.004C219.054 19.2073 219.867 19.492 220.681 19.858V29.496C219.949 29.13 219.257 28.8657 218.607 28.703C217.997 28.4997 217.346 28.398 216.655 28.398C216.207 28.398 215.74 28.4793 215.252 28.642C214.804 28.764 214.377 29.0487 213.971 29.496C213.564 29.9433 213.279 30.594 213.117 31.448C212.995 32.2613 212.934 33.3797 212.934 34.803V38.707H220.681V47.918H212.934ZM236.152 65.73L221.024 38.707H233.834L242.191 54.75L250.304 38.707H262.992L237.86 85.616H225.477L236.152 65.73Z" fill="white"/>
  <rect y="74" width="238" height="12" fill="white"/>
  <rect y="6" width="263" height="12" fill="white"/>
  <rect y="86" width="80" height="12" transform="rotate(-90 0 86)" fill="white"/>
  <rect x="251" y="35" width="29" height="12" transform="rotate(-90 251 35)" fill="white"/>
</svg>
